<svg width="24" height="24" viewBox="0 0 24 24" fill="none" xmlns="http://www.w3.org/2000/svg">
<path fill-rule="evenodd" clip-rule="evenodd" d="M15.3333 22H21.1666V20.125H17.2778V18.875H19.8704C20.2376 18.875 20.5455 18.7552 20.794 18.5156C21.0424 18.276 21.1666 17.9792 21.1666 17.625V15.75C21.1666 15.3958 21.0424 15.099 20.794 14.8594C20.5455 14.6198 20.2376 14.5 19.8704 14.5H15.3333V16.375H19.2222V17.625H16.6296C16.2623 17.625 15.9545 17.7448 15.706 17.9844C15.4575 18.224 15.3333 18.5208 15.3333 18.875V22Z" fill="white"/>
<path fill-rule="evenodd" clip-rule="evenodd" d="M8.125 21.2125C9.34167 21.7375 10.6333 22 12 22C12.8678 22 13.7011 21.8967 14.5 21.6901V18.875C14.5 18.3012 14.7115 17.7857 15.1276 17.3845C15.1939 17.3205 15.263 17.2618 15.3346 17.2083H14.5V13.6667H16.396C16.4237 13.4468 16.4459 13.2287 16.4625 13.0125C16.4875 12.6875 16.5 12.35 16.5 12C16.5 11.65 16.4875 11.3125 16.4625 10.9875C16.4375 10.6625 16.4 10.3333 16.35 10H19.75C19.8333 10.3333 19.8958 10.6625 19.9375 10.9875C19.9792 11.3125 20 11.65 20 12C20 12.35 19.9792 12.6875 19.9375 13.0125C19.9098 13.2287 19.8728 13.4468 19.8267 13.6667H19.8704C20.4382 13.6667 20.958 13.8599 21.3724 14.2595C21.4823 14.3654 21.5779 14.4793 21.6591 14.6002C21.8864 13.7659 22 12.8992 22 12C22 10.6167 21.7375 9.32083 21.2125 8.1125C20.6875 6.90417 19.9708 5.84583 19.0625 4.9375C18.1542 4.02917 17.0958 3.3125 15.8875 2.7875C14.6792 2.2625 13.3833 2 12 2C10.6333 2 9.34167 2.2625 8.125 2.7875C6.90833 3.3125 5.84583 4.02917 4.9375 4.9375C4.02917 5.84583 3.3125 6.90417 2.7875 8.1125C2.2625 9.32083 2 10.6167 2 12C2 13.3667 2.2625 14.6583 2.7875 15.875C3.3125 17.0917 4.02917 18.1542 4.9375 19.0625C5.84583 19.9708 6.90833 20.6875 8.125 21.2125ZM21.1667 15.9797V15.75C21.1667 15.3958 21.0424 15.099 20.794 14.8594C20.5455 14.6198 20.2377 14.5 19.8704 14.5H15.3333V16.375H15.8562C15.8889 16.2508 15.9202 16.1258 15.95 16H18.9C18.826 16.1275 18.7492 16.2525 18.6696 16.375H19.2222V17.625H17.6744C17.4885 17.817 17.2928 18.0004 17.0875 18.175C16.5583 18.6251 15.9736 18.9909 15.3333 19.2723V21.4327C15.5201 21.3653 15.7048 21.2919 15.8875 21.2125C16.5778 20.9126 17.2192 20.5501 17.8116 20.125H17.2778V18.875H19.2452C20.042 18.0357 20.6825 17.0706 21.1667 15.9797ZM13.125 18.075C12.8083 18.725 12.4333 19.35 12 19.95C11.5667 19.35 11.1917 18.725 10.875 18.075C10.5583 17.425 10.3 16.7333 10.1 16H13.9C13.7 16.7333 13.4417 17.425 13.125 18.075ZM8.6125 17.8375C8.8375 18.4292 9.1 19 9.4 19.55C8.46667 19.25 7.6375 18.7917 6.9125 18.175C6.1875 17.5583 5.58333 16.8333 5.1 16H8.05C8.2 16.6333 8.3875 17.2458 8.6125 17.8375ZM7.65 14H4.25C4.16667 13.6667 4.10417 13.3375 4.0625 13.0125C4.02083 12.6875 4 12.35 4 12C4 11.65 4.02083 11.3125 4.0625 10.9875C4.10417 10.6625 4.16667 10.3333 4.25 10H7.65C7.6 10.3333 7.5625 10.6625 7.5375 10.9875C7.5125 11.3125 7.5 11.65 7.5 12C7.5 12.35 7.5125 12.6875 7.5375 13.0125C7.5625 13.3375 7.6 13.6667 7.65 14ZM14.35 14H9.65C9.6 13.6667 9.5625 13.3375 9.5375 13.0125C9.5125 12.6875 9.5 12.35 9.5 12C9.5 11.65 9.5125 11.3125 9.5375 10.9875C9.5625 10.6625 9.6 10.3333 9.65 10H14.35C14.4 10.3333 14.4375 10.6625 14.4625 10.9875C14.4875 11.3125 14.5 11.65 14.5 12C14.5 12.35 14.4875 12.6875 14.4625 13.0125C14.4375 13.3375 14.4 13.6667 14.35 14ZM18.9 8H15.95C15.8 7.36667 15.6125 6.75417 15.3875 6.1625C15.1625 5.57083 14.9 5 14.6 4.45C15.5333 4.75 16.3625 5.20833 17.0875 5.825C17.8125 6.44167 18.4167 7.16667 18.9 8ZM13.125 5.925C13.4417 6.575 13.7 7.26667 13.9 8H10.1C10.3 7.26667 10.5583 6.575 10.875 5.925C11.1917 5.275 11.5667 4.65 12 4.05C12.4333 4.65 12.8083 5.275 13.125 5.925ZM8.05 8H5.1C5.58333 7.16667 6.1875 6.44167 6.9125 5.825C7.6375 5.20833 8.46667 4.75 9.4 4.45C9.1 5 8.8375 5.57083 8.6125 6.1625C8.3875 6.75417 8.2 7.36667 8.05 8Z" fill="white"/>
</svg>
