<svg width="42" height="42" viewBox="0 0 42 42" fill="none" xmlns="http://www.w3.org/2000/svg">
<path d="M24.5 38.5V33.1187L34.1687 23.4937C34.4312 23.2312 34.7229 23.0417 35.0437 22.925C35.3646 22.8083 35.6854 22.75 36.0063 22.75C36.3562 22.75 36.6917 22.8156 37.0125 22.9469C37.3333 23.0781 37.625 23.275 37.8875 23.5375L39.5062 25.1562C39.7396 25.4187 39.9219 25.7104 40.0531 26.0312C40.1844 26.3521 40.25 26.6729 40.25 26.9937C40.25 27.3146 40.1917 27.6427 40.075 27.9781C39.9583 28.3135 39.7687 28.6125 39.5062 28.875L29.8813 38.5H24.5ZM27.125 35.875H28.7875L34.0812 30.5375L33.2937 29.7062L32.4625 28.9187L27.125 34.2125V35.875ZM10.5 38.5C9.5375 38.5 8.71354 38.1573 8.02812 37.4719C7.34271 36.7865 7 35.9625 7 35V7C7 6.0375 7.34271 5.21354 8.02812 4.52812C8.71354 3.84271 9.5375 3.5 10.5 3.5H24.5L35 14V19.25H31.5V15.75H22.75V7H10.5V35H21V38.5H10.5ZM33.2937 29.7062L32.4625 28.9187L34.0812 30.5375L33.2937 29.7062Z" fill="white"/>
</svg>
