<svg width="24" height="24" viewBox="0 0 24 24" fill="none" xmlns="http://www.w3.org/2000/svg">
<path d="M5.525 21C4.775 21 4.16667 20.8 3.7 20.4C3.23333 20 3 19.4667 3 18.8C3 18.2667 3.14167 17.8375 3.425 17.5125C3.70833 17.1875 4.06667 17.025 4.5 17.025C4.91667 17.025 5.27083 17.1667 5.5625 17.45C5.85417 17.7333 6 18.075 6 18.475C6 18.5583 5.99583 18.6333 5.9875 18.7C5.97917 18.7667 5.96667 18.8417 5.95 18.925C6.03333 18.9083 6.10417 18.8625 6.1625 18.7875C6.22083 18.7125 6.26667 18.6083 6.3 18.475L7.85 10H6C5.71667 10 5.47917 9.90417 5.2875 9.7125C5.09583 9.52083 5 9.28333 5 9C5 8.71667 5.09583 8.47917 5.2875 8.2875C5.47917 8.09583 5.71667 8 6 8H8.225L8.75 5.15C8.86667 4.51667 9.17917 4 9.6875 3.6C10.1958 3.2 10.8 3 11.5 3C12.2333 3 12.8333 3.21667 13.3 3.65C13.7667 4.08333 14 4.625 14 5.275C14 5.775 13.8583 6.1875 13.575 6.5125C13.2917 6.8375 12.9333 7 12.5 7C12.0833 7 11.7292 6.85833 11.4375 6.575C11.1458 6.29167 11 5.94167 11 5.525C11 5.44167 11.0042 5.36667 11.0125 5.3C11.0208 5.23333 11.0333 5.15833 11.05 5.075C10.95 5.10833 10.875 5.15833 10.825 5.225C10.775 5.29167 10.7333 5.39167 10.7 5.525L10.275 8H14C14.2833 8 14.5208 8.09583 14.7125 8.2875C14.9042 8.47917 15 8.71667 15 9C15 9.25 14.9208 9.46667 14.7625 9.65C14.6042 9.83333 14.4083 9.94167 14.175 9.975L15.5 11.475L16.825 9.975C16.5917 9.94167 16.3958 9.83333 16.2375 9.65C16.0792 9.46667 16 9.25 16 9C16 8.71667 16.0958 8.47917 16.2875 8.2875C16.4792 8.09583 16.7167 8 17 8H20C20.2833 8 20.5208 8.09583 20.7125 8.2875C20.9042 8.47917 21 8.71667 21 9C21 9.28333 20.9042 9.52083 20.7125 9.7125C20.5208 9.90417 20.2833 10 20 10H19.45L16.825 13L19.45 16H20C20.2833 16 20.5208 16.0958 20.7125 16.2875C20.9042 16.4792 21 16.7167 21 17C21 17.2833 20.9042 17.5208 20.7125 17.7125C20.5208 17.9042 20.2833 18 20 18H17C16.7167 18 16.4792 17.9042 16.2875 17.7125C16.0958 17.5208 16 17.2833 16 17C16 16.75 16.0792 16.5333 16.2375 16.35C16.3958 16.1667 16.5917 16.0583 16.825 16.025L15.5 14.5L14.175 16.025C14.4083 16.0583 14.6042 16.1667 14.7625 16.35C14.9208 16.5333 15 16.75 15 17C15 17.2833 14.9042 17.5208 14.7125 17.7125C14.5208 17.9042 14.2833 18 14 18H11C10.7167 18 10.4792 17.9042 10.2875 17.7125C10.0958 17.5208 10 17.2833 10 17C10 16.7167 10.0958 16.4792 10.2875 16.2875C10.4792 16.0958 10.7167 16 11 16H11.55L14.175 13L11.55 10H9.9L8.3 18.6C8.16667 19.35 7.85833 19.9375 7.375 20.3625C6.89167 20.7875 6.275 21 5.525 21Z" fill="white"/>
</svg>
