<svg width="24" height="24" viewBox="0 0 24 24" fill="none" xmlns="http://www.w3.org/2000/svg">
<path fill-rule="evenodd" clip-rule="evenodd" d="M17.7143 22.8572C18.9905 22.8572 20.0715 22.4143 20.9572 21.5286C21.8429 20.6429 22.2857 19.5619 22.2857 18.2857C22.2857 17.0095 21.8429 15.9286 20.9572 15.0429C20.0715 14.1572 18.9905 13.7143 17.7143 13.7143C16.4381 13.7143 15.3572 14.1572 14.4715 15.0429C13.5857 15.9286 13.1429 17.0095 13.1429 18.2857C13.1429 19.5619 13.5857 20.6429 14.4715 21.5286C15.3572 22.4143 16.4381 22.8572 17.7143 22.8572ZM20.9429 16.8857L16.9143 20.9143L14.4857 18.4857L15.2857 17.6857L16.9143 19.3143L20.1429 16.0857L20.9429 16.8857Z" fill="white"/>
<path fill-rule="evenodd" clip-rule="evenodd" d="M6 19H9V13H15V13.2315C14.5198 13.4904 14.073 13.825 13.6633 14.2347C13.4145 14.4836 13.1933 14.7461 13 15.0215V15H11V21H4V9L12 3L20 9V13.0244C19.3809 12.7583 18.712 12.609 18 12.5777V10L12 5.5L6 10V19ZM15 14.584C14.8167 14.7208 14.6405 14.8738 14.4714 15.0429C13.6029 15.9114 13.1602 16.9678 13.1434 18.2118C13.143 18.2364 13.1429 18.261 13.1429 18.2857C13.1429 18.4547 13.1506 18.6203 13.1662 18.7824C13.2455 19.611 13.5277 20.3502 14.0126 21H20V17.8286L16.9143 20.9143L15 19L14.4857 18.4857L14.4857 18.4857L15 17.9714V14.584ZM16.6 19L16.9143 19.3143L17.2286 19H16.6ZM18 18.2286V13.7219C18.7344 13.7613 19.4011 13.9543 20 14.3011V16.2286L18 18.2286Z" fill="white"/>
</svg>
