<svg width="42" height="42" viewBox="0 0 42 42" fill="none" xmlns="http://www.w3.org/2000/svg">
<path d="M7.875 21.2188C6.65 21.2188 5.61458 20.7958 4.76875 19.95C3.92292 19.1042 3.5 18.0687 3.5 16.8438C3.5 15.6187 3.92292 14.5833 4.76875 13.7375C5.61458 12.8917 6.65 12.4688 7.875 12.4688C9.1 12.4688 10.1354 12.8917 10.9812 13.7375C11.8271 14.5833 12.25 15.6187 12.25 16.8438C12.25 18.0687 11.8271 19.1042 10.9812 19.95C10.1354 20.7958 9.1 21.2188 7.875 21.2188ZM15.75 14.2188C14.525 14.2188 13.4896 13.7958 12.6438 12.95C11.7979 12.1042 11.375 11.0687 11.375 9.84375C11.375 8.61875 11.7979 7.58333 12.6438 6.7375C13.4896 5.89167 14.525 5.46875 15.75 5.46875C16.975 5.46875 18.0104 5.89167 18.8562 6.7375C19.7021 7.58333 20.125 8.61875 20.125 9.84375C20.125 11.0687 19.7021 12.1042 18.8562 12.95C18.0104 13.7958 16.975 14.2188 15.75 14.2188ZM26.25 14.2188C25.025 14.2188 23.9896 13.7958 23.1437 12.95C22.2979 12.1042 21.875 11.0687 21.875 9.84375C21.875 8.61875 22.2979 7.58333 23.1437 6.7375C23.9896 5.89167 25.025 5.46875 26.25 5.46875C27.475 5.46875 28.5104 5.89167 29.3562 6.7375C30.2021 7.58333 30.625 8.61875 30.625 9.84375C30.625 11.0687 30.2021 12.1042 29.3562 12.95C28.5104 13.7958 27.475 14.2188 26.25 14.2188ZM34.125 21.2188C32.9 21.2188 31.8646 20.7958 31.0187 19.95C30.1729 19.1042 29.75 18.0687 29.75 16.8438C29.75 15.6187 30.1729 14.5833 31.0187 13.7375C31.8646 12.8917 32.9 12.4688 34.125 12.4688C35.35 12.4688 36.3854 12.8917 37.2313 13.7375C38.0771 14.5833 38.5 15.6187 38.5 16.8438C38.5 18.0687 38.0771 19.1042 37.2313 19.95C36.3854 20.7958 35.35 21.2188 34.125 21.2188ZM11.6375 38.7188C10.325 38.7188 9.22396 38.2156 8.33437 37.2094C7.44479 36.2031 7 35.0146 7 33.6437C7 32.1271 7.51771 30.8 8.55312 29.6625C9.58854 28.525 10.6167 27.4021 11.6375 26.2937C12.4833 25.3896 13.2125 24.4052 13.825 23.3406C14.4375 22.276 15.1667 21.2771 16.0125 20.3438C16.6542 19.5854 17.3979 18.9583 18.2437 18.4625C19.0896 17.9667 20.0083 17.7188 21 17.7188C21.9917 17.7188 22.9104 17.9521 23.7563 18.4187C24.6021 18.8854 25.3458 19.4979 25.9875 20.2562C26.8042 21.1896 27.526 22.1958 28.1531 23.275C28.7802 24.3542 29.5167 25.3604 30.3625 26.2937C31.3833 27.4021 32.4115 28.525 33.4469 29.6625C34.4823 30.8 35 32.1271 35 33.6437C35 35.0146 34.5552 36.2031 33.6656 37.2094C32.776 38.2156 31.675 38.7188 30.3625 38.7188C28.7875 38.7188 27.2271 38.5875 25.6812 38.325C24.1354 38.0625 22.575 37.9312 21 37.9312C19.425 37.9312 17.8646 38.0625 16.3187 38.325C14.7729 38.5875 13.2125 38.7188 11.6375 38.7188Z" fill="white"/>
</svg>
