<svg width="24" height="24" viewBox="0 0 24 24" fill="none" xmlns="http://www.w3.org/2000/svg">
<path fill-rule="evenodd" clip-rule="evenodd" d="M14 22H22V19.5H16.6667V17.8333H20.2222C20.7259 17.8333 21.1481 17.6736 21.4889 17.3542C21.8296 17.0347 22 16.6389 22 16.1667V13.6667C22 13.1944 21.8296 12.7986 21.4889 12.4792C21.1481 12.1597 20.7259 12 20.2222 12H14V14.5H19.3333V16.1667H15.7778C15.2741 16.1667 14.8519 16.3264 14.5111 16.6458C14.1704 16.9653 14 17.3611 14 17.8333V22Z" fill="white"/>
<path fill-rule="evenodd" clip-rule="evenodd" d="M8.125 21.2125C9.34167 21.7375 10.6333 22 12 22C12.3386 22 12.6719 21.9843 13 21.9528V18.3244C12.711 18.8853 12.3776 19.4271 12 19.95C11.5667 19.35 11.1917 18.725 10.875 18.075C10.5583 17.425 10.3 16.7333 10.1 16H13.7415C13.7693 15.9717 13.7979 15.9438 13.8272 15.9163C14.0057 15.749 14.1985 15.6105 14.4032 15.5H13V14H9.65C9.6 13.6667 9.5625 13.3375 9.5375 13.0125C9.5125 12.6875 9.5 12.35 9.5 12C9.5 11.65 9.5125 11.3125 9.5375 10.9875C9.5625 10.6625 9.6 10.3333 9.65 10H14.35C14.4 10.3333 14.4375 10.6625 14.4625 10.9875C14.4628 10.9917 14.4631 10.9958 14.4635 11H16.4635C16.4631 10.9958 16.4628 10.9917 16.4625 10.9875C16.4375 10.6625 16.4 10.3333 16.35 10H19.75C19.8333 10.3333 19.8958 10.6625 19.9375 10.9875C19.938 10.9917 19.9386 10.9958 19.9391 11H20.2222C20.8785 11 21.4849 11.1925 21.9924 11.594C21.9458 10.3624 21.6858 9.20189 21.2125 8.1125C20.6875 6.90417 19.9708 5.84583 19.0625 4.9375C18.1542 4.02917 17.0958 3.3125 15.8875 2.7875C14.6792 2.2625 13.3833 2 12 2C10.6333 2 9.34167 2.2625 8.125 2.7875C6.90833 3.3125 5.84583 4.02917 4.9375 4.9375C4.02917 5.84583 3.3125 6.90417 2.7875 8.1125C2.2625 9.32083 2 10.6167 2 12C2 13.3667 2.2625 14.6583 2.7875 15.875C3.3125 17.0917 4.02917 18.1542 4.9375 19.0625C5.84583 19.9708 6.90833 20.6875 8.125 21.2125ZM21.9324 13.1818C21.8536 12.9167 21.7057 12.6824 21.4889 12.4792C21.1481 12.1597 20.7259 12 20.2222 12H20C20 12.35 19.9792 12.6875 19.9375 13.0125C19.8958 13.3375 19.8333 13.6667 19.75 14H16.35C16.4 13.6667 16.4375 13.3375 16.4625 13.0125C16.4875 12.6875 16.5 12.35 16.5 12H14.5C14.5 12.35 14.4875 12.6875 14.4625 13.0125C14.4375 13.3375 14.4 13.6667 14.35 14H14V14.5H19.3333V16.1667H18.8008C18.4243 16.7838 17.9791 17.3393 17.4653 17.8333H20.1078C20.5403 17.2322 20.9085 16.5795 21.2125 15.875C21.5837 15.0148 21.8237 14.117 21.9324 13.1818ZM18.5966 19.5H16.6667V18.5067C16.0464 18.9587 15.3575 19.3065 14.6 19.55C14.9 19 15.1625 18.4292 15.3875 17.8375C15.5927 17.2979 15.7667 16.7409 15.9095 16.1667H15.7778C15.2741 16.1667 14.8519 16.3264 14.5111 16.6458C14.1704 16.9653 14 17.3611 14 17.8333V21.805C14.6513 21.6738 15.2804 21.4763 15.8875 21.2125C16.8948 20.7749 17.7978 20.204 18.5966 19.5ZM8.6125 17.8375C8.8375 18.4292 9.1 19 9.4 19.55C8.46667 19.25 7.6375 18.7917 6.9125 18.175C6.1875 17.5583 5.58333 16.8333 5.1 16H8.05C8.2 16.6333 8.3875 17.2458 8.6125 17.8375ZM7.65 14H4.25C4.16667 13.6667 4.10417 13.3375 4.0625 13.0125C4.02083 12.6875 4 12.35 4 12C4 11.65 4.02083 11.3125 4.0625 10.9875C4.10417 10.6625 4.16667 10.3333 4.25 10H7.65C7.6 10.3333 7.5625 10.6625 7.5375 10.9875C7.5125 11.3125 7.5 11.65 7.5 12C7.5 12.35 7.5125 12.6875 7.5375 13.0125C7.5625 13.3375 7.6 13.6667 7.65 14ZM18.9 8H15.95C15.8 7.36667 15.6125 6.75417 15.3875 6.1625C15.1625 5.57083 14.9 5 14.6 4.45C15.5333 4.75 16.3625 5.20833 17.0875 5.825C17.8125 6.44167 18.4167 7.16667 18.9 8ZM13.125 5.925C13.4417 6.575 13.7 7.26667 13.9 8H10.1C10.3 7.26667 10.5583 6.575 10.875 5.925C11.1917 5.275 11.5667 4.65 12 4.05C12.4333 4.65 12.8083 5.275 13.125 5.925ZM8.05 8H5.1C5.58333 7.16667 6.1875 6.44167 6.9125 5.825C7.6375 5.20833 8.46667 4.75 9.4 4.45C9.1 5 8.8375 5.57083 8.6125 6.1625C8.3875 6.75417 8.2 7.36667 8.05 8Z" fill="white"/>
</svg>
